<?xml version="1.0" ?><!DOCTYPE svg  PUBLIC '-//W3C//DTD SVG 1.1//EN'  'http://www.w3.org/Graphics/SVG/1.1/DTD/svg11.dtd'><svg enable-background="new 0 0 512 512" height="512px" id="Layer_1" version="1.1" viewBox="0 0 512 512" width="512px" xml:space="preserve" xmlns="http://www.w3.org/2000/svg" xmlns:xlink="http://www.w3.org/1999/xlink"><path d="M512,142.823l-5.351-10.695c-2.184-4.447-6.048-9.222-11.707-12.516c-5.638-3.329-12.686-5.067-20.771-5.055  c-11.907,0.059-26.609,3.919-44.808,12.945l-157.029,74.083l67.155,37.634L512,142.823z M32.434,342.66l-0.214,0.104  c-10.443,5.535-18.606,11.428-24.336,19.48c-5.762,8.054-7.954,17.697-7.881,27.243c-0.041,17.662,4.57,36.329,18.539,50.387  c13.972,14.057,35.64,21.763,65.268,21.72c0.326,0,0.648,0.001,0.968,0.001c29.75,0.002,51.708-10.774,64.732-27.95  c13.165-17.206,17.628-38.533,19.642-59.477c1.301-14.915,2.125-25.891,4.766-33.423c2.699-7.441,6.109-12.534,16.355-19.23  l31.18-17.45l-53.212-29.818L32.434,342.66z M111.835,411.384c-27.361,14.655-61.431,4.358-76.083-23.003l99.077-53.08  C149.494,362.656,139.198,396.728,111.835,411.384 M190.201,190.439c-10.195-6.674-13.593-11.76-16.286-19.181  c-2.633-7.534-3.464-18.509-4.766-33.397c-2.014-20.972-6.477-42.298-19.642-59.505c-13.168-17.362-35.468-28.184-65.7-27.947  c-29.628-0.053-51.295,7.658-65.268,21.715c-13.969,14.058-18.58,32.727-18.539,50.39c-0.072,9.543,2.119,19.188,7.881,27.239  c5.73,8.052,13.893,13.946,24.336,19.479l0.165,0.087l146.766,73.904l8.677,4.35c4.454,2.236,6.265,7.659,4.026,12.109  c-0.308,0.611-0.713,1.134-1.131,1.638c-0.048,0.06-0.078,0.126-0.124,0.183c-0.014,0.015-0.021,0.032-0.033,0.044l140.343,78.646  l98.456,45.697c18.197,9.025,32.898,12.885,44.805,12.942c8.087,0.013,15.135-1.723,20.772-5.061  c5.659-3.294,9.523-8.063,11.707-12.509l5.345-10.698L237.24,216.75L190.201,190.439z M135.414,178.252l-98.682-53.827  c14.865-27.251,49.004-37.293,76.252-22.431C140.239,116.866,150.279,151.002,135.414,178.252"/></svg>